<svg xmlns="http://www.w3.org/2000/svg" viewBox="0 0 32 32" width="32" height="32">
  <!-- Background circle -->
  <circle cx="16" cy="16" r="16" fill="#7c3aed"/>
  
  <!-- Bug body -->
  <ellipse cx="16" cy="18" rx="6" ry="4" fill="white" opacity="0.9"/>
  
  <!-- Bug head -->
  <circle cx="16" cy="10" r="3.5" fill="white"/>
  
  <!-- Antennae -->
  <path d="M13 7L11.5 5M19 7L20.5 5" stroke="white" stroke-width="1.5" stroke-linecap="round"/>
  
  <!-- Wings -->
  <ellipse cx="12" cy="14" rx="2.5" ry="3.5" fill="white" opacity="0.4" transform="rotate(-25 12 14)"/>
  <ellipse cx="20" cy="14" rx="2.5" ry="3.5" fill="white" opacity="0.4" transform="rotate(25 20 14)"/>
  
  <!-- Bug spots -->
  <circle cx="14" cy="16" r="0.8" fill="#7c3aed" opacity="0.8"/>
  <circle cx="18" cy="18" r="0.8" fill="#7c3aed" opacity="0.8"/>
  <circle cx="16" cy="19.5" r="0.8" fill="#7c3aed" opacity="0.8"/>
  
  <!-- Eyes -->
  <circle cx="14" cy="9.5" r="0.8" fill="#7c3aed"/>
  <circle cx="18" cy="9.5" r="0.8" fill="#7c3aed"/>
  
  <!-- Bug legs -->
  <path d="M10 16L8.5 17.5M10 19L8.5 20.5M22 16L23.5 17.5M22 19L23.5 20.5" stroke="white" stroke-width="1.2" stroke-linecap="round"/>
</svg>
