<svg width="32" height="32" viewBox="0 0 32 32" fill="none"
  xmlns="http://www.w3.org/2000/svg">
  
  <!-- Wings -->
  <ellipse cx="16" cy="18" rx="5.5" ry="3.5" fill="#a78bfa55"/>
  <ellipse cx="24" cy="18" rx="5.5" ry="3.5" fill="#a78bfa55"/>

  <!-- Body (thorax/abdomen) -->
  <ellipse cx="20" cy="20" rx="6" ry="5" fill="#7c3aed"/>
  
  <!-- Segmentation line -->
  <line x1="20" y1="15" x2="20" y2="25" stroke="#6d28d9" stroke-width="1"/>

  <!-- Head -->
  <circle cx="20" cy="11" r="3.5" fill="#7c3aed"/>

  <!-- Eyes -->
  <circle cx="18.7" cy="10.5" r="0.7" fill="white"/>
  <circle cx="21.3" cy="10.5" r="0.7" fill="white"/>
  <circle cx="18.7" cy="10.5" r="0.3" fill="#0f172a"/>
  <circle cx="21.3" cy="10.5" r="0.3" fill="#0f172a"/>

  <!-- Open mouth -->
  <path d="M19 12.5 q1 0.8 2 0 q-0.5 1 -1 1 q-0.5 0 -1 -1Z" fill="#0f172a"/>

  <!-- Antennae (curved like insect, not cat ears) -->
  <path d="M18.5 8 C17 6, 16 5, 15 6" stroke="#7c3aed" stroke-width="1.2" stroke-linecap="round"/>
  <path d="M21.5 8 C23 6, 24 5, 25 6" stroke="#7c3aed" stroke-width="1.2" stroke-linecap="round"/>

  <!-- Sound waves -->
  <path d="M25 11 Q28 16 25 21" stroke="#fbbf24" stroke-width="1.4" stroke-linecap="round" fill="none"/>
  <path d="M27 10 Q31 16 27 22" stroke="#fbbf24" stroke-width="1" stroke-linecap="round" fill="none"/>
</svg>
