<svg xmlns="http://www.w3.org/2000/svg" viewBox="0 0 32 32" width="32" height="32">
  <!-- Bug body -->
  <ellipse cx="16" cy="18" rx="7" ry="5" fill="#7c3aed" opacity="0.9"/>
  
  <!-- Bug head -->
  <circle cx="16" cy="10" r="4" fill="#7c3aed"/>
  
  <!-- Antennae -->
  <path d="M13 6L11 3M19 6L21 3" stroke="#7c3aed" stroke-width="2" stroke-linecap="round"/>
  
  <!-- Wings -->
  <ellipse cx="12" cy="14" rx="3" ry="4" fill="#a855f7" opacity="0.6" transform="rotate(-25 12 14)"/>
  <ellipse cx="20" cy="14" rx="3" ry="4" fill="#a855f7" opacity="0.6" transform="rotate(25 20 14)"/>
  
  <!-- Bug spots -->
  <circle cx="14" cy="16" r="1" fill="white" opacity="0.9"/>
  <circle cx="18" cy="18" r="1" fill="white" opacity="0.9"/>
  <circle cx="16" cy="20" r="1" fill="white" opacity="0.9"/>
  
  <!-- Eyes -->
  <circle cx="14" cy="9" r="1" fill="white"/>
  <circle cx="18" cy="9" r="1" fill="white"/>
  
  <!-- Bug legs -->
  <path d="M10 16L8 18M10 20L8 22M22 16L24 18M22 20L24 22" stroke="#7c3aed" stroke-width="1.5" stroke-linecap="round"/>
</svg>
